<svg id="visual" viewBox="0 0 960 300" width="960" height="300" xmlns="http://www.w3.org/2000/svg" xmlns:xlink="http://www.w3.org/1999/xlink" version="1.1"><rect x="0" y="0" width="960" height="300" fill="#001220"></rect><path d="M0 78L22.8 78C45.7 78 91.3 78 137 84.8C182.7 91.7 228.3 105.3 274 108.7C319.7 112 365.3 105 411.2 98.8C457 92.7 503 87.3 548.8 90.5C594.7 93.7 640.3 105.3 686 106.3C731.7 107.3 777.3 97.7 823 96C868.7 94.3 914.3 100.7 937.2 103.8L960 107L960 0L937.2 0C914.3 0 868.7 0 823 0C777.3 0 731.7 0 686 0C640.3 0 594.7 0 548.8 0C503 0 457 0 411.2 0C365.3 0 319.7 0 274 0C228.3 0 182.7 0 137 0C91.3 0 45.7 0 22.8 0L0 0Z" fill="#fabc69"></path><path d="M0 96L22.8 94C45.7 92 91.3 88 137 82.8C182.7 77.7 228.3 71.3 274 70.2C319.7 69 365.3 73 411.2 72.8C457 72.7 503 68.3 548.8 68.2C594.7 68 640.3 72 686 73C731.7 74 777.3 72 823 75.2C868.7 78.3 914.3 86.7 937.2 90.8L960 95L960 0L937.2 0C914.3 0 868.7 0 823 0C777.3 0 731.7 0 686 0C640.3 0 594.7 0 548.8 0C503 0 457 0 411.2 0C365.3 0 319.7 0 274 0C228.3 0 182.7 0 137 0C91.3 0 45.7 0 22.8 0L0 0Z" fill="#f9ac53"></path><path d="M0 69L22.8 66C45.7 63 91.3 57 137 52.7C182.7 48.3 228.3 45.7 274 50.2C319.7 54.7 365.3 66.3 411.2 70.3C457 74.3 503 70.7 548.8 67.7C594.7 64.7 640.3 62.3 686 58.5C731.7 54.7 777.3 49.3 823 49.2C868.7 49 914.3 54 937.2 56.5L960 59L960 0L937.2 0C914.3 0 868.7 0 823 0C777.3 0 731.7 0 686 0C640.3 0 594.7 0 548.8 0C503 0 457 0 411.2 0C365.3 0 319.7 0 274 0C228.3 0 182.7 0 137 0C91.3 0 45.7 0 22.8 0L0 0Z" fill="#f89c3d"></path><path d="M0 46L22.8 43C45.7 40 91.3 34 137 32.5C182.7 31 228.3 34 274 37.3C319.7 40.7 365.3 44.3 411.2 47.2C457 50 503 52 548.8 52.7C594.7 53.3 640.3 52.7 686 52.8C731.7 53 777.3 54 823 54.7C868.7 55.3 914.3 55.7 937.2 55.8L960 56L960 0L937.2 0C914.3 0 868.7 0 823 0C777.3 0 731.7 0 686 0C640.3 0 594.7 0 548.8 0C503 0 457 0 411.2 0C365.3 0 319.7 0 274 0C228.3 0 182.7 0 137 0C91.3 0 45.7 0 22.8 0L0 0Z" fill="#f78a27"></path><path d="M0 17L22.8 17.7C45.7 18.3 91.3 19.7 137 20.8C182.7 22 228.3 23 274 23.3C319.7 23.7 365.3 23.3 411.2 24C457 24.7 503 26.3 548.8 25C594.7 23.7 640.3 19.3 686 19.8C731.7 20.3 777.3 25.7 823 29C868.7 32.3 914.3 33.7 937.2 34.3L960 35L960 0L937.2 0C914.3 0 868.7 0 823 0C777.3 0 731.7 0 686 0C640.3 0 594.7 0 548.8 0C503 0 457 0 411.2 0C365.3 0 319.7 0 274 0C228.3 0 182.7 0 137 0C91.3 0 45.7 0 22.8 0L0 0Z" fill="#f7770f"></path></svg>